<svg width="240" height="240" viewBox="0 0 240 240" fill="none" xmlns="http://www.w3.org/2000/svg">
<rect width="240" height="240" fill="#E5E5E5"/>
<path d="M194.521 194.502H33V33H194.521V194.502ZM38.8687 188.62H188.651V38.8841H38.8687V188.62Z" fill="black"/>
<path d="M49.5587 181.618C47.938 181.618 46.6243 180.301 46.6243 178.677V49.4291C46.6243 47.8047 47.938 46.4881 49.5587 46.4881H178.338C179.958 46.4881 181.272 47.8047 181.272 49.4291C181.272 51.0535 179.958 52.3702 178.338 52.3702H52.495V178.677C52.495 180.301 51.1794 181.618 49.5587 181.618Z" fill="black"/>
<path d="M205.066 208H43.9484C42.3277 208 41.0141 206.683 41.0141 205.059C41.0141 203.434 42.3277 202.118 43.9484 202.118H202.131V43.7437C202.131 42.1193 203.445 40.8026 205.066 40.8026C206.686 40.8026 208 42.1193 208 43.7437V205.057C208 206.681 206.686 208 205.066 208Z" fill="black"/>
<path d="M110.749 113.151C110.749 107.951 106.329 104.051 100.999 104.051H98.3992C95.4792 104.051 92.8792 104.701 90.5992 106.651C88.6492 104.701 86.4392 104.051 83.4492 104.051H80.8492C78.5792 104.051 76.2992 105.021 74.9992 106.001L73.6992 104.051H63.9492V109.901L67.8492 110.551V130.051L63.9492 130.701V136.551H79.5492V130.701L75.6492 130.051V116.071C75.6492 113.151 77.9292 111.201 80.8492 111.201H82.7992C84.2892 111.201 85.3992 112.501 85.3992 113.801V130.051L81.4992 130.701V136.551H97.0992V130.701L93.1992 130.051V116.071C93.1992 113.151 95.5392 111.201 98.3992 111.201H100.349C101.979 111.201 102.949 112.501 102.949 113.801V130.051L99.0492 130.701V136.551H114.649V130.701L110.749 130.051V113.151ZM132.849 136.551C138.699 136.551 143.249 131.671 143.249 125.831V113.481C143.249 108.211 139.419 104.051 134.149 104.051H126.349C121.089 104.051 117.249 108.211 117.249 113.481V125.831C117.249 131.671 121.799 136.551 127.649 136.551H132.849ZM128.299 129.401C126.349 129.401 125.049 128.101 125.049 126.151V113.481C125.049 112.171 126.029 111.201 127.329 111.201H133.179C134.479 111.201 135.449 112.171 135.449 113.481V126.151C135.449 128.101 134.149 129.401 132.199 129.401H128.299ZM150.399 104.051V115.101H156.249L156.899 111.201H163.079C164.379 111.201 165.349 112.431 165.349 113.801V115.491L155.279 118.021C150.989 119.131 147.799 122.841 147.799 127.121C147.799 132.841 151.119 136.551 157.229 136.551H177.049V130.701L173.149 130.051V113.481C173.149 108.211 169.249 104.051 163.729 104.051H150.399ZM155.599 126.801C155.599 125.501 156.449 124.661 157.549 124.391L165.349 122.581V129.401H158.199C156.579 129.401 155.599 128.101 155.599 126.801Z" fill="black"/>
</svg>
